<svg width="20" height="20" viewBox="0 0 20 20" fill="none" xmlns="http://www.w3.org/2000/svg">
<path d="M1.76 1.7L0.140003 2.88L2.43 6C3.03748 5.6809 3.68249 5.43902 4.35 5.28M9 7V9H16V9.29L11 10.71V13.5C11 14.39 10.7361 15.26 10.2416 16.0001C9.74715 16.7401 9.04434 17.3169 8.22208 17.6575C7.39981 17.998 6.49501 18.0872 5.6221 17.9135C4.74918 17.7399 3.94736 17.3113 3.31802 16.682C2.68869 16.0526 2.2601 15.2508 2.08647 14.3779C1.91284 13.505 2.00195 12.6002 2.34254 11.7779C2.68314 10.9557 3.25992 10.2529 3.99994 9.75838C4.73996 9.26392 5.60999 9 6.5 9H7V7H6.5C5.21442 7 3.95772 7.38122 2.8888 8.09545C1.81988 8.80968 0.986755 9.82484 0.494786 11.0126C0.00281635 12.2003 -0.125905 13.5072 0.124899 14.7681C0.375703 16.029 0.994767 17.1871 1.90381 18.0962C2.81285 19.0052 3.97104 19.6243 5.23191 19.8751C6.49279 20.1259 7.79972 19.9972 8.98744 19.5052C10.1752 19.0132 11.1903 18.1801 11.9046 17.1112C12.6188 16.0423 13 14.7856 13 13.5V11.91L20 10V7M14.24 1.7L11.85 5H14.32L15.86 2.88M7 0V5H9V0H7Z" fill="#6EC486"/>
</svg>
