<svg width="18" height="20" viewBox="0 0 18 20" fill="none" xmlns="http://www.w3.org/2000/svg">
<path d="M11.0588 2.35294H17.6471V14.1176H9.41176L8.94118 11.7647H2.35294V20H0V0H10.5882L11.0588 2.35294ZM10.5882 11.7647H12.9412V9.41177H15.2941V7.05882H12.9412V4.70588H10.5882V7.05882L9.41176 4.70588V2.35294H7.05882V4.70588H4.70588V2.35294H2.35294V4.70588H4.70588V7.05882H2.35294V9.41177H4.70588V7.05882H7.05882V9.41177H9.41176V7.05882L10.5882 9.41177V11.7647ZM7.05882 7.05882V4.70588H9.41176V7.05882H7.05882ZM10.5882 7.05882H12.9412V9.41177H10.5882V7.05882Z" fill="#6EC486"/>
</svg>
