<svg width="22" height="22" viewBox="0 0 22 22" fill="none" xmlns="http://www.w3.org/2000/svg">
<path d="M11 15C11.56 15.84 12.31 16.53 13.2 17L11 19.2L8.8 17C9.69 16.53 10.45 15.84 11 15ZM16 10.2C15.4696 10.2 14.9609 10.4107 14.5858 10.7858C14.2107 11.1609 14 11.6696 14 12.2C14 12.7304 14.2107 13.2391 14.5858 13.6142C14.9609 13.9893 15.4696 14.2 16 14.2C16.5304 14.2 17.0391 13.9893 17.4142 13.6142C17.7893 13.2391 18 12.7304 18 12.2C18 11.6696 17.7893 11.1609 17.4142 10.7858C17.0391 10.4107 16.5304 10.2 16 10.2ZM6 10.2C5.46957 10.2 4.96086 10.4107 4.58579 10.7858C4.21071 11.1609 4 11.6696 4 12.2C4 12.7304 4.21071 13.2391 4.58579 13.6142C4.96086 13.9893 5.46957 14.2 6 14.2C6.53043 14.2 7.03914 13.9893 7.41421 13.6142C7.78929 13.2391 8 12.7304 8 12.2C8 11.6696 7.78929 11.1609 7.41421 10.7858C7.03914 10.4107 6.53043 10.2 6 10.2ZM16 7.7C17.0609 7.7 18.0783 8.12143 18.8284 8.87157C19.5786 9.62172 20 10.6391 20 11.7C20 12.7609 19.5786 13.7783 18.8284 14.5284C18.0783 15.2786 17.0609 15.7 16 15.7C14.9391 15.7 13.9217 15.2786 13.1716 14.5284C12.4214 13.7783 12 12.7609 12 11.7C12 10.6391 12.4214 9.62172 13.1716 8.87157C13.9217 8.12143 14.9391 7.7 16 7.7ZM6 7.7C7.06087 7.7 8.07828 8.12143 8.82843 8.87157C9.57857 9.62172 10 10.6391 10 11.7C10 12.7609 9.57857 13.7783 8.82843 14.5284C8.07828 15.2786 7.06087 15.7 6 15.7C4.93913 15.7 3.92172 15.2786 3.17157 14.5284C2.42143 13.7783 2 12.7609 2 11.7C2 10.6391 2.42143 9.62172 3.17157 8.87157C3.92172 8.12143 4.93913 7.7 6 7.7ZM1.24 0C3 3.7 1.73 6.46 0.55 9.2C0.19 10 0 10.83 0 11.7C0 13.2913 0.632141 14.8174 1.75736 15.9426C2.88258 17.0679 4.4087 17.7 6 17.7C6.21 17.69 6.42 17.68 6.63 17.65L9.59 20.61L11 22L12.41 20.61L15.37 17.65C15.58 17.68 15.79 17.69 16 17.7C17.5913 17.7 19.1174 17.0679 20.2426 15.9426C21.3679 14.8174 22 13.2913 22 11.7C22 10.83 21.81 10 21.45 9.2C20.27 6.46 19 3.7 20.76 0C18.12 2.06 14.36 3.69 11 3.7C7.64 3.69 3.88 2.06 1.24 0Z" fill="#6EC486"/>
</svg>
